<?xml version="1.0" encoding="UTF-8"?>
<svg width="160px" height="160px" viewBox="0 0 160 160" version="1.1" xmlns="http://www.w3.org/2000/svg" xmlns:xlink="http://www.w3.org/1999/xlink">
    <title>图档资料</title>
    <g id="图档资料" stroke="none" stroke-width="1" fill="none" fill-rule="evenodd">
        <path d="M14,4 L156,4 L156,4 L156,156 L14,156 C8.4771525,156 4,151.522847 4,146 L4,14 C4,8.4771525 8.4771525,4 14,4 Z" id="矩形备份-2" fill="#F3F6FF"></path>
        <path d="M8,0 L32,0 L32,0 C32,17.673112 17.673112,32 0,32 L0,32 L0,32 L0,8 C-5.41083001e-16,3.581722 3.581722,8.11624501e-16 8,0 Z" id="矩形" fill="#009999"></path>
        <path d="M20.5987146,17.8965593 C20.8723129,18.0745055 21.0262934,18.3993815 20.9962961,18.7353968 C20.9662988,19.0714122 20.7574887,19.36071 20.4571434,19.4823708 L14.3106346,22.6790484 C13.9015206,22.8908765 13.4532101,23 12.9975502,23 L12.9975502,22.9987162 C12.5418904,22.9987162 12.0923549,22.8895926 11.6844658,22.6777646 L5.54285664,19.4823708 C5.24251135,19.36071 5.03370124,19.0714122 5.00370391,18.7353968 C4.97370657,18.3993815 5.12768711,18.0745055 5.40128537,17.8965592 C5.67488363,17.718613 6.02099002,17.7182362 6.29494041,17.8955863 L12.4316501,21.0922639 C12.7868688,21.277132 13.2070068,21.277132 13.5634504,21.0922639 L19.7050596,17.8955863 C19.97901,17.7182362 20.3251164,17.718613 20.5987146,17.8965593 Z M20.5987146,14.1337231 C20.8723129,14.3116694 21.0262934,14.6365453 20.9962961,14.9725607 C20.9662988,15.308576 20.7574887,15.5978739 20.4571434,15.7195347 L14.3106346,18.9162123 C13.9697063,19.0927356 13.6015582,19.1979364 13.2246203,19.2280999 L12.9975502,19.2384477 C12.5418904,19.2384477 12.0923549,19.1280403 11.6844658,18.9174961 L5.54285664,15.7195347 C5.24251135,15.5978739 5.03370124,15.308576 5.00370391,14.9725607 C4.97370657,14.6365453 5.12768711,14.3116693 5.40128537,14.1337231 C5.67488363,13.9557768 6.02099002,13.9554 6.29494041,14.1327501 L12.4316501,17.3294277 C12.7880937,17.5117282 13.2057819,17.5117282 13.5634504,17.3294277 L19.7050596,14.1327501 C19.97901,13.9554 20.3251164,13.9557769 20.5987146,14.1337231 Z M13.9604589,7.22340013 L20.2701058,10.3799365 C20.7099432,10.5585962 21,11.0035705 21,11.4996625 C21,11.9957545 20.7099432,12.4407288 20.2701058,12.6193886 L13.9616934,15.7759249 C13.3518391,16.0746917 12.648161,16.0746917 12.0383066,15.7759249 L5.7298942,12.6193886 C5.29005679,12.4407288 5,11.9957545 5,11.4996625 C5,11.0035705 5.29005679,10.5585962 5.7298942,10.3799365 L12.0383066,7.22340013 C12.6477555,6.92553329 13.35101,6.92553329 13.9604589,7.22340013 Z" id="形状" fill="#FFFFFF" fill-rule="nonzero"></path>
        <path d="M97.7766929,53.333334 L62.2766938,53.333334 C59.9044921,53.3324361 57.6291917,54.2743917 55.9517917,55.9517917 C54.2743917,57.6291917 53.3324361,59.9044921 53.333334,62.2766938 L53.333334,97.7233075 C53.333334,102.666667 57.333334,106.666667 62.2766938,106.666667 L106.666667,106.666667 L106.666667,57.7766939 L102.223307,57.7766939 L102.223307,102.223307 L62.333334,102.223307 C59.833334,102.223307 57.7766939,100.166667 57.7766939,97.6666669 L57.7766939,93.4433597 C57.7766939,90.9433598 59.833334,88.8899744 62.333334,88.8899744 L97.7766929,88.8899744 L97.7766929,53.333334 Z M97.7766929,93.3333337 L62.2233084,93.3333337 L62.2233084,97.7766929 L97.7766929,97.7766929 L97.7766929,93.3333337 Z" id="形状" fill="#1BB8AB" fill-rule="nonzero"></path>
    </g>
</svg>